<mxfile host="Electron" modified="2024-02-18T18:06:10.307Z" agent="Mozilla/5.0 (Macintosh; Intel Mac OS X 10_15_7) AppleWebKit/537.36 (KHTML, like Gecko) draw.io/22.1.2 Chrome/114.0.5735.289 Electron/25.9.4 Safari/537.36" etag="AfWgpIls8-01A_jl5K2R" version="22.1.2" type="device">
  <diagram name="Page-1" id="VWLyBR6WL_vDLK74GmtO">
    <mxGraphModel dx="1082" dy="813" grid="1" gridSize="10" guides="1" tooltips="1" connect="1" arrows="1" fold="1" page="1" pageScale="1" pageWidth="1169" pageHeight="827" math="0" shadow="0">
      <root>
        <mxCell id="0" />
        <object label="full" id="4W7vb-_gK_N_zVpGkKDe-186">
          <mxCell parent="0" />
        </object>
        <mxCell id="T8rqHu9YziMsXCaHmrip-63" value="" style="shape=cube;whiteSpace=wrap;html=1;boundedLbl=1;backgroundOutline=1;darkOpacity=0.05;darkOpacity2=0.1;flipH=1;" parent="4W7vb-_gK_N_zVpGkKDe-186" vertex="1">
          <mxGeometry x="787" y="237.85" width="353" height="560" as="geometry" />
        </mxCell>
        <mxCell id="T8rqHu9YziMsXCaHmrip-75" value="" style="rounded=1;whiteSpace=wrap;html=1;fillColor=none;dashed=1;dashPattern=8 8;" parent="4W7vb-_gK_N_zVpGkKDe-186" vertex="1">
          <mxGeometry x="860" y="387.85" width="214.6" height="302.15" as="geometry" />
        </mxCell>
        <mxCell id="T8rqHu9YziMsXCaHmrip-64" value="&lt;font style=&quot;font-size: 20px;&quot;&gt;TTP&lt;/font&gt;" style="text;html=1;strokeColor=none;fillColor=none;align=center;verticalAlign=middle;whiteSpace=wrap;rounded=0;" parent="4W7vb-_gK_N_zVpGkKDe-186" vertex="1">
          <mxGeometry x="796.88" y="267.85" width="44.11" height="7.31" as="geometry" />
        </mxCell>
        <mxCell id="T8rqHu9YziMsXCaHmrip-65" value="" style="image;sketch=0;aspect=fixed;html=1;points=[];align=center;fontSize=12;image=img/lib/mscae/Kubernetes.svg;" parent="4W7vb-_gK_N_zVpGkKDe-186" vertex="1">
          <mxGeometry x="1060" y="267.85" width="50" height="48" as="geometry" />
        </mxCell>
        <mxCell id="T8rqHu9YziMsXCaHmrip-66" value="" style="sketch=0;html=1;dashed=0;whitespace=wrap;fillColor=#2875E2;strokeColor=#ffffff;points=[[0.005,0.63,0],[0.1,0.2,0],[0.9,0.2,0],[0.5,0,0],[0.995,0.63,0],[0.72,0.99,0],[0.5,1,0],[0.28,0.99,0]];verticalLabelPosition=bottom;align=center;verticalAlign=top;shape=mxgraph.kubernetes.icon;prIcon=pod" parent="4W7vb-_gK_N_zVpGkKDe-186" vertex="1">
          <mxGeometry x="870.3599999999999" y="394" width="50" height="48" as="geometry" />
        </mxCell>
        <mxCell id="T8rqHu9YziMsXCaHmrip-67" value="&lt;span style=&quot;font-size: 18px;&quot;&gt;&lt;font style=&quot;font-size: 18px;&quot;&gt;Compute&lt;br&gt;Node&lt;/font&gt;&lt;/span&gt;" style="text;html=1;align=left;verticalAlign=middle;resizable=0;points=[];autosize=1;strokeColor=none;fillColor=none;fontStyle=1;fontSize=18;" parent="4W7vb-_gK_N_zVpGkKDe-186" vertex="1">
          <mxGeometry x="790.77" y="275.13999999999993" width="100" height="60" as="geometry" />
        </mxCell>
        <mxCell id="T8rqHu9YziMsXCaHmrip-68" value="" style="group" parent="4W7vb-_gK_N_zVpGkKDe-186" vertex="1" connectable="0">
          <mxGeometry x="890.7700000000001" y="192" width="147.4066525899396" height="75.48271276595744" as="geometry" />
        </mxCell>
        <mxCell id="T8rqHu9YziMsXCaHmrip-69" value="" style="triangle;whiteSpace=wrap;html=1;rotation=-90;" parent="T8rqHu9YziMsXCaHmrip-68" vertex="1">
          <mxGeometry x="37.90456780884161" y="-39.96143617021277" width="71.59751697225637" height="155.405585106383" as="geometry" />
        </mxCell>
        <mxCell id="T8rqHu9YziMsXCaHmrip-70" value="&lt;font style=&quot;font-size: 12px;&quot;&gt;Pluggable&lt;br&gt;Communication Modules&lt;/font&gt;" style="text;html=1;strokeColor=none;fillColor=none;align=center;verticalAlign=middle;whiteSpace=wrap;rounded=0;" parent="T8rqHu9YziMsXCaHmrip-68" vertex="1">
          <mxGeometry x="49.64094510076442" y="36.36702127659575" width="48.13278451916395" height="25.372340425531917" as="geometry" />
        </mxCell>
        <mxCell id="T8rqHu9YziMsXCaHmrip-71" value="" style="group" parent="4W7vb-_gK_N_zVpGkKDe-186" vertex="1" connectable="0">
          <mxGeometry x="920.3556182177794" y="266.42553191489367" width="120.48438178222055" height="84.57446808510639" as="geometry" />
        </mxCell>
        <mxCell id="T8rqHu9YziMsXCaHmrip-72" value="" style="shape=image;verticalLabelPosition=bottom;labelBackgroundColor=default;verticalAlign=top;aspect=fixed;imageAspect=0;image=https://download.logo.wine/logo/Go_(programming_language)/Go_(programming_language)-Logo.wine.png;fontSize=16;" parent="T8rqHu9YziMsXCaHmrip-71" vertex="1">
          <mxGeometry width="82.22684022023842" height="54.815219436574544" as="geometry" />
        </mxCell>
        <mxCell id="T8rqHu9YziMsXCaHmrip-73" value="" style="rounded=0;whiteSpace=wrap;html=1;fontColor=#000000;labelBackgroundColor=none;fillColor=none;" parent="T8rqHu9YziMsXCaHmrip-71" vertex="1">
          <mxGeometry x="-28.07745763617897" y="1.6914893617021276" width="144.55077404180253" height="81.05617021276596" as="geometry" />
        </mxCell>
        <mxCell id="T8rqHu9YziMsXCaHmrip-74" value="&lt;span style=&quot;font-size: 16px; background-color: rgb(255, 255, 255);&quot;&gt;Distributed Agent&lt;/span&gt;" style="text;whiteSpace=wrap;html=1;align=center;" parent="T8rqHu9YziMsXCaHmrip-71" vertex="1">
          <mxGeometry x="8.022130753193991" y="35.287234042553195" width="80.22130753193991" height="42.287234042553195" as="geometry" />
        </mxCell>
        <mxCell id="T8rqHu9YziMsXCaHmrip-76" style="edgeStyle=orthogonalEdgeStyle;rounded=0;orthogonalLoop=1;jettySize=auto;html=1;entryX=1;entryY=0.5;entryDx=0;entryDy=0;strokeWidth=2;fillColor=#dae8fc;strokeColor=#6c8ebf;" parent="4W7vb-_gK_N_zVpGkKDe-186" source="T8rqHu9YziMsXCaHmrip-77" target="T8rqHu9YziMsXCaHmrip-79" edge="1">
          <mxGeometry relative="1" as="geometry">
            <Array as="points">
              <mxPoint x="1033" y="416" />
              <mxPoint x="1033" y="650" />
            </Array>
          </mxGeometry>
        </mxCell>
        <mxCell id="T8rqHu9YziMsXCaHmrip-77" value="&lt;font style=&quot;font-size: 16px;&quot;&gt;Sidecar&lt;/font&gt;" style="rounded=0;whiteSpace=wrap;html=1;" parent="4W7vb-_gK_N_zVpGkKDe-186" vertex="1">
          <mxGeometry x="929.0000000000001" y="395.85" width="84.39" height="40" as="geometry" />
        </mxCell>
        <mxCell id="T8rqHu9YziMsXCaHmrip-79" value="&lt;font style=&quot;font-size: 16px;&quot;&gt;Aggregate&lt;/font&gt;" style="rounded=0;whiteSpace=wrap;html=1;" parent="4W7vb-_gK_N_zVpGkKDe-186" vertex="1">
          <mxGeometry x="928.8100000000001" y="629.9999999999999" width="84.39" height="40" as="geometry" />
        </mxCell>
        <mxCell id="T8rqHu9YziMsXCaHmrip-80" style="edgeStyle=orthogonalEdgeStyle;rounded=0;orthogonalLoop=1;jettySize=auto;html=1;entryX=0.5;entryY=1;entryDx=0;entryDy=0;strokeWidth=2;fillColor=#dae8fc;strokeColor=#6c8ebf;exitX=0.5;exitY=0;exitDx=0;exitDy=0;" parent="4W7vb-_gK_N_zVpGkKDe-186" source="T8rqHu9YziMsXCaHmrip-79" target="T8rqHu9YziMsXCaHmrip-83" edge="1">
          <mxGeometry relative="1" as="geometry">
            <mxPoint x="971.0049999999997" y="627.8499999999999" as="sourcePoint" />
          </mxGeometry>
        </mxCell>
        <mxCell id="T8rqHu9YziMsXCaHmrip-82" style="edgeStyle=orthogonalEdgeStyle;rounded=0;orthogonalLoop=1;jettySize=auto;html=1;entryX=0.5;entryY=1;entryDx=0;entryDy=0;strokeWidth=2;fillColor=#dae8fc;strokeColor=#6c8ebf;" parent="4W7vb-_gK_N_zVpGkKDe-186" source="T8rqHu9YziMsXCaHmrip-83" target="T8rqHu9YziMsXCaHmrip-85" edge="1">
          <mxGeometry relative="1" as="geometry" />
        </mxCell>
        <mxCell id="T8rqHu9YziMsXCaHmrip-83" value="&lt;font style=&quot;font-size: 16px;&quot;&gt;Algorithm&lt;/font&gt;" style="rounded=0;whiteSpace=wrap;html=1;" parent="4W7vb-_gK_N_zVpGkKDe-186" vertex="1">
          <mxGeometry x="928.8100000000001" y="547.8499999999999" width="84.39" height="40" as="geometry" />
        </mxCell>
        <mxCell id="T8rqHu9YziMsXCaHmrip-84" style="edgeStyle=orthogonalEdgeStyle;rounded=0;orthogonalLoop=1;jettySize=auto;html=1;strokeWidth=2;fillColor=#dae8fc;strokeColor=#6c8ebf;" parent="4W7vb-_gK_N_zVpGkKDe-186" source="T8rqHu9YziMsXCaHmrip-85" target="T8rqHu9YziMsXCaHmrip-77" edge="1">
          <mxGeometry relative="1" as="geometry" />
        </mxCell>
        <mxCell id="T8rqHu9YziMsXCaHmrip-85" value="&lt;font style=&quot;font-size: 16px;&quot;&gt;Graph&lt;/font&gt;" style="rounded=0;whiteSpace=wrap;html=1;" parent="4W7vb-_gK_N_zVpGkKDe-186" vertex="1">
          <mxGeometry x="928.8100000000001" y="477.85" width="84.39" height="40" as="geometry" />
        </mxCell>
        <mxCell id="T8rqHu9YziMsXCaHmrip-86" style="edgeStyle=orthogonalEdgeStyle;rounded=0;orthogonalLoop=1;jettySize=auto;html=1;entryX=0.55;entryY=0.984;entryDx=0;entryDy=0;entryPerimeter=0;startArrow=classic;startFill=1;strokeWidth=3;fillColor=#d5e8d4;strokeColor=#82b366;" parent="4W7vb-_gK_N_zVpGkKDe-186" source="T8rqHu9YziMsXCaHmrip-77" target="T8rqHu9YziMsXCaHmrip-73" edge="1">
          <mxGeometry relative="1" as="geometry" />
        </mxCell>
        <mxCell id="LUGl1xroUloDNKUxb_b_-0" value="" style="shape=cube;whiteSpace=wrap;html=1;boundedLbl=1;backgroundOutline=1;darkOpacity=0.05;darkOpacity2=0.1;flipH=1;" parent="4W7vb-_gK_N_zVpGkKDe-186" vertex="1">
          <mxGeometry x="420" y="240.76999999999998" width="353" height="560" as="geometry" />
        </mxCell>
        <mxCell id="LUGl1xroUloDNKUxb_b_-1" value="" style="rounded=1;whiteSpace=wrap;html=1;fillColor=none;dashed=1;dashPattern=8 8;" parent="4W7vb-_gK_N_zVpGkKDe-186" vertex="1">
          <mxGeometry x="493" y="390.77" width="214.6" height="299.23" as="geometry" />
        </mxCell>
        <mxCell id="LUGl1xroUloDNKUxb_b_-3" value="" style="image;sketch=0;aspect=fixed;html=1;points=[];align=center;fontSize=12;image=img/lib/mscae/Kubernetes.svg;" parent="4W7vb-_gK_N_zVpGkKDe-186" vertex="1">
          <mxGeometry x="693" y="270.77000000000004" width="50" height="48" as="geometry" />
        </mxCell>
        <mxCell id="LUGl1xroUloDNKUxb_b_-4" value="" style="sketch=0;html=1;dashed=0;whitespace=wrap;fillColor=#2875E2;strokeColor=#ffffff;points=[[0.005,0.63,0],[0.1,0.2,0],[0.9,0.2,0],[0.5,0,0],[0.995,0.63,0],[0.72,0.99,0],[0.5,1,0],[0.28,0.99,0]];verticalLabelPosition=bottom;align=center;verticalAlign=top;shape=mxgraph.kubernetes.icon;prIcon=pod" parent="4W7vb-_gK_N_zVpGkKDe-186" vertex="1">
          <mxGeometry x="503.3599999999999" y="396.92" width="50" height="48" as="geometry" />
        </mxCell>
        <mxCell id="LUGl1xroUloDNKUxb_b_-5" value="&lt;span style=&quot;font-size: 18px;&quot;&gt;&lt;font style=&quot;font-size: 18px;&quot;&gt;Data&lt;br&gt;Node&lt;/font&gt;&lt;/span&gt;" style="text;html=1;align=left;verticalAlign=middle;resizable=0;points=[];autosize=1;strokeColor=none;fillColor=none;fontStyle=1;fontSize=18;" parent="4W7vb-_gK_N_zVpGkKDe-186" vertex="1">
          <mxGeometry x="423.77" y="278.05999999999995" width="70" height="60" as="geometry" />
        </mxCell>
        <mxCell id="LUGl1xroUloDNKUxb_b_-6" value="" style="group" parent="4W7vb-_gK_N_zVpGkKDe-186" vertex="1" connectable="0">
          <mxGeometry x="523.7700000000001" y="194.92" width="147.4066525899396" height="75.48271276595744" as="geometry" />
        </mxCell>
        <mxCell id="LUGl1xroUloDNKUxb_b_-7" value="" style="triangle;whiteSpace=wrap;html=1;rotation=-90;" parent="LUGl1xroUloDNKUxb_b_-6" vertex="1">
          <mxGeometry x="37.90456780884161" y="-39.96143617021277" width="71.59751697225637" height="155.405585106383" as="geometry" />
        </mxCell>
        <mxCell id="LUGl1xroUloDNKUxb_b_-8" value="&lt;font style=&quot;font-size: 12px;&quot;&gt;Pluggable&lt;br&gt;Communication Modules&lt;/font&gt;" style="text;html=1;strokeColor=none;fillColor=none;align=center;verticalAlign=middle;whiteSpace=wrap;rounded=0;" parent="LUGl1xroUloDNKUxb_b_-6" vertex="1">
          <mxGeometry x="49.64094510076442" y="36.36702127659575" width="48.13278451916395" height="25.372340425531917" as="geometry" />
        </mxCell>
        <mxCell id="LUGl1xroUloDNKUxb_b_-9" value="" style="group" parent="4W7vb-_gK_N_zVpGkKDe-186" vertex="1" connectable="0">
          <mxGeometry x="553.3556182177794" y="269.3455319148937" width="120.48438178222055" height="84.57446808510639" as="geometry" />
        </mxCell>
        <mxCell id="LUGl1xroUloDNKUxb_b_-10" value="" style="shape=image;verticalLabelPosition=bottom;labelBackgroundColor=default;verticalAlign=top;aspect=fixed;imageAspect=0;image=https://download.logo.wine/logo/Go_(programming_language)/Go_(programming_language)-Logo.wine.png;fontSize=16;" parent="LUGl1xroUloDNKUxb_b_-9" vertex="1">
          <mxGeometry width="82.22684022023842" height="54.815219436574544" as="geometry" />
        </mxCell>
        <mxCell id="LUGl1xroUloDNKUxb_b_-11" value="" style="rounded=0;whiteSpace=wrap;html=1;fontColor=#000000;labelBackgroundColor=none;fillColor=none;" parent="LUGl1xroUloDNKUxb_b_-9" vertex="1">
          <mxGeometry x="-28.07745763617897" y="1.6914893617021276" width="144.55077404180253" height="81.05617021276596" as="geometry" />
        </mxCell>
        <mxCell id="LUGl1xroUloDNKUxb_b_-12" value="&lt;span style=&quot;font-size: 16px; background-color: rgb(255, 255, 255);&quot;&gt;Distributed Agent&lt;/span&gt;" style="text;whiteSpace=wrap;html=1;align=center;" parent="LUGl1xroUloDNKUxb_b_-9" vertex="1">
          <mxGeometry x="8.022130753193991" y="35.287234042553195" width="80.22130753193991" height="42.287234042553195" as="geometry" />
        </mxCell>
        <mxCell id="LUGl1xroUloDNKUxb_b_-13" style="edgeStyle=orthogonalEdgeStyle;rounded=0;orthogonalLoop=1;jettySize=auto;html=1;entryX=1;entryY=0.5;entryDx=0;entryDy=0;strokeWidth=2;fillColor=#dae8fc;strokeColor=#6c8ebf;" parent="4W7vb-_gK_N_zVpGkKDe-186" source="LUGl1xroUloDNKUxb_b_-14" target="LUGl1xroUloDNKUxb_b_-18" edge="1">
          <mxGeometry relative="1" as="geometry">
            <Array as="points">
              <mxPoint x="666" y="419" />
              <mxPoint x="666" y="570" />
              <mxPoint x="646" y="570" />
            </Array>
          </mxGeometry>
        </mxCell>
        <mxCell id="LUGl1xroUloDNKUxb_b_-14" value="&lt;font style=&quot;font-size: 16px;&quot;&gt;Sidecar&lt;/font&gt;" style="rounded=0;whiteSpace=wrap;html=1;" parent="4W7vb-_gK_N_zVpGkKDe-186" vertex="1">
          <mxGeometry x="562.0000000000001" y="398.77000000000004" width="84.39" height="40" as="geometry" />
        </mxCell>
        <mxCell id="LUGl1xroUloDNKUxb_b_-17" style="edgeStyle=orthogonalEdgeStyle;rounded=0;orthogonalLoop=1;jettySize=auto;html=1;entryX=0.5;entryY=1;entryDx=0;entryDy=0;strokeWidth=2;fillColor=#dae8fc;strokeColor=#6c8ebf;" parent="4W7vb-_gK_N_zVpGkKDe-186" source="LUGl1xroUloDNKUxb_b_-18" target="LUGl1xroUloDNKUxb_b_-20" edge="1">
          <mxGeometry relative="1" as="geometry" />
        </mxCell>
        <mxCell id="LUGl1xroUloDNKUxb_b_-18" value="&lt;font style=&quot;font-size: 16px;&quot;&gt;Query&lt;/font&gt;" style="rounded=0;whiteSpace=wrap;html=1;" parent="4W7vb-_gK_N_zVpGkKDe-186" vertex="1">
          <mxGeometry x="561.8100000000001" y="550.77" width="84.39" height="40" as="geometry" />
        </mxCell>
        <mxCell id="LUGl1xroUloDNKUxb_b_-19" style="edgeStyle=orthogonalEdgeStyle;rounded=0;orthogonalLoop=1;jettySize=auto;html=1;strokeWidth=2;fillColor=#dae8fc;strokeColor=#6c8ebf;" parent="4W7vb-_gK_N_zVpGkKDe-186" source="LUGl1xroUloDNKUxb_b_-20" target="LUGl1xroUloDNKUxb_b_-14" edge="1">
          <mxGeometry relative="1" as="geometry" />
        </mxCell>
        <mxCell id="LUGl1xroUloDNKUxb_b_-20" value="&lt;font style=&quot;font-size: 16px;&quot;&gt;Anonymize&lt;/font&gt;" style="rounded=0;whiteSpace=wrap;html=1;" parent="4W7vb-_gK_N_zVpGkKDe-186" vertex="1">
          <mxGeometry x="561.8100000000001" y="480.77000000000004" width="84.39" height="40" as="geometry" />
        </mxCell>
        <mxCell id="LUGl1xroUloDNKUxb_b_-21" style="edgeStyle=orthogonalEdgeStyle;rounded=0;orthogonalLoop=1;jettySize=auto;html=1;entryX=0.55;entryY=0.984;entryDx=0;entryDy=0;entryPerimeter=0;startArrow=classic;startFill=1;strokeWidth=3;fillColor=#d5e8d4;strokeColor=#82b366;" parent="4W7vb-_gK_N_zVpGkKDe-186" source="LUGl1xroUloDNKUxb_b_-14" target="LUGl1xroUloDNKUxb_b_-11" edge="1">
          <mxGeometry relative="1" as="geometry" />
        </mxCell>
      </root>
    </mxGraphModel>
  </diagram>
</mxfile>
